{
	"asset":{
		"generator":"Khronos glTF Blender I/O v5.1.18",
		"version":"2.0"
	},
	"extensionsUsed":[
		"KHR_materials_specular",
		"KHR_materials_ior"
	],
	"scene":0,
	"scenes":[
		{
			"name":"Scene",
			"nodes":[
				0,
				1,
				2,
				3
			]
		}
	],
	"nodes":[
		{
			"mesh":0,
			"name":"Pole",
			"rotation":[
				0.46232640743255615,
				0.5350272059440613,
				-0.5350276827812195,
				0.46232640743255615
			],
			"scale":[
				0.005742860957980156,
				0.0057428618893027306,
				0.005742859560996294
			],
			"translation":[
				0.7873208522796631,
				0.8343355655670166,
				3.1683361530303955
			]
		},
		{
			"mesh":1,
			"name":"semafor",
			"rotation":[
				0.49741652607917786,
				-0.5025701522827148,
				0.5025705099105835,
				0.497416228055954
			],
			"translation":[
				0.5364847183227539,
				0.3654031753540039,
				3.7862515449523926
			]
		},
		{
			"mesh":2,
			"name":"semafor.001",
			"rotation":[
				0.5286079049110413,
				-0.46965283155441284,
				0.46965306997299194,
				0.5286074876785278
			],
			"translation":[
				0.1779555380344391,
				4.850926399230957,
				0.403314471244812
			]
		},
		{
			"mesh":3,
			"name":"Plane",
			"rotation":[
				0.7069106101989746,
				-0.7043892741203308,
				-0.04543030634522438,
				0.04526827484369278
			],
			"scale":[
				0.5058804750442505,
				0.49001866579055786,
				0.25950077176094055
			],
			"translation":[
				0.3428627550601959,
				7.356898307800293,
				0.4282718896865845
			]
		}
	],
	"materials":[
		{
			"doubleSided":true,
			"extensions":{
				"KHR_materials_specular":{
					"specularColorFactor":[
						2.0,
						2.0,
						2.0
					]
				},
				"KHR_materials_ior":{
					"ior":1
				}
			},
			"name":"Metal",
			"pbrMetallicRoughness":{
				"baseColorFactor":[
					0,
					0,
					0,
					1
				],
				"roughnessFactor":0.6885517835617065
			}
		},
		{
			"doubleSided":true,
			"extensions":{
				"KHR_materials_specular":{
					"specularFactor":0.6600000262260437
				}
			},
			"name":"metalic1",
			"pbrMetallicRoughness":{
				"baseColorFactor":[
					1,
					0.6866854429244995,
					0,
					1
				],
				"metallicFactor":0
			}
		},
		{
			"doubleSided":true,
			"extensions":{
				"KHR_materials_specular":{
					"specularFactor":0.6600000262260437
				}
			},
			"name":"green1",
			"pbrMetallicRoughness":{
				"baseColorTexture":{
					"index":0
				},
				"metallicFactor":0
			}
		},
		{
			"doubleSided":true,
			"extensions":{
				"KHR_materials_specular":{
					"specularFactor":0.6600000262260437
				}
			},
			"name":"ambar1",
			"pbrMetallicRoughness":{
				"baseColorTexture":{
					"index":1
				},
				"metallicFactor":0
			}
		},
		{
			"doubleSided":true,
			"extensions":{
				"KHR_materials_specular":{
					"specularFactor":0.6600000262260437
				}
			},
			"name":"red1",
			"pbrMetallicRoughness":{
				"baseColorTexture":{
					"index":2
				},
				"metallicFactor":0
			}
		},
		{
			"doubleSided":true,
			"extensions":{
				"KHR_materials_specular":{
					"specularFactor":0.6600000262260437
				}
			},
			"name":"metalic1.001",
			"pbrMetallicRoughness":{
				"baseColorFactor":[
					1,
					0.6866854429244995,
					0,
					1
				],
				"metallicFactor":0
			}
		},
		{
			"doubleSided":true,
			"extensions":{
				"KHR_materials_specular":{
					"specularFactor":0.6600000262260437
				}
			},
			"name":"green1.001",
			"pbrMetallicRoughness":{
				"baseColorTexture":{
					"index":3
				},
				"metallicFactor":0
			}
		},
		{
			"doubleSided":true,
			"extensions":{
				"KHR_materials_specular":{
					"specularFactor":0.6600000262260437
				}
			},
			"name":"ambar1.001",
			"pbrMetallicRoughness":{
				"baseColorTexture":{
					"index":4
				},
				"metallicFactor":0
			}
		},
		{
			"doubleSided":true,
			"extensions":{
				"KHR_materials_specular":{
					"specularFactor":0.6600000262260437
				}
			},
			"name":"red1.001",
			"pbrMetallicRoughness":{
				"baseColorTexture":{
					"index":5
				},
				"metallicFactor":0
			}
		},
		{
			"doubleSided":true,
			"name":"Material.001",
			"pbrMetallicRoughness":{
				"baseColorFactor":[
					0,
					0,
					0,
					1
				],
				"metallicFactor":0,
				"roughnessFactor":0.5
			}
		}
	],
	"meshes":[
		{
			"name":"Pole",
			"primitives":[
				{
					"attributes":{
						"POSITION":0,
						"NORMAL":1,
						"TEXCOORD_0":2
					},
					"indices":3,
					"material":0
				}
			]
		},
		{
			"name":"semafor",
			"primitives":[
				{
					"attributes":{
						"POSITION":4,
						"NORMAL":5,
						"TEXCOORD_0":6,
						"COLOR_0":7,
						"COLOR_1":8
					},
					"indices":9,
					"material":1
				},
				{
					"attributes":{
						"POSITION":10,
						"NORMAL":11,
						"TEXCOORD_0":12,
						"COLOR_0":13,
						"COLOR_1":14
					},
					"indices":15,
					"material":2
				},
				{
					"attributes":{
						"POSITION":16,
						"NORMAL":17,
						"TEXCOORD_0":18,
						"COLOR_0":19,
						"COLOR_1":20
					},
					"indices":21,
					"material":3
				},
				{
					"attributes":{
						"POSITION":22,
						"NORMAL":23,
						"TEXCOORD_0":24,
						"COLOR_0":25,
						"COLOR_1":26
					},
					"indices":27,
					"material":4
				}
			]
		},
		{
			"name":"semafor.001",
			"primitives":[
				{
					"attributes":{
						"POSITION":28,
						"NORMAL":29,
						"TEXCOORD_0":30,
						"COLOR_0":31,
						"COLOR_1":32
					},
					"indices":9,
					"material":5
				},
				{
					"attributes":{
						"POSITION":33,
						"NORMAL":34,
						"TEXCOORD_0":35,
						"COLOR_0":36,
						"COLOR_1":37
					},
					"indices":15,
					"material":6
				},
				{
					"attributes":{
						"POSITION":38,
						"NORMAL":39,
						"TEXCOORD_0":40,
						"COLOR_0":41,
						"COLOR_1":42
					},
					"indices":21,
					"material":7
				},
				{
					"attributes":{
						"POSITION":43,
						"NORMAL":44,
						"TEXCOORD_0":45,
						"COLOR_0":46,
						"COLOR_1":47
					},
					"indices":27,
					"material":8
				}
			]
		},
		{
			"name":"Plane",
			"primitives":[
				{
					"attributes":{
						"POSITION":48,
						"NORMAL":49,
						"TEXCOORD_0":50
					},
					"indices":51,
					"material":9
				}
			]
		}
	],
	"textures":[
		{
			"sampler":0,
			"source":0
		},
		{
			"sampler":0,
			"source":1
		},
		{
			"sampler":0,
			"source":2
		},
		{
			"sampler":0,
			"source":0
		},
		{
			"sampler":0,
			"source":1
		},
		{
			"sampler":0,
			"source":2
		}
	],
	"images":[
		{
			"mimeType":"image/jpeg",
			"name":"green1",
			"uri":"textures/green1.jpg"
		},
		{
			"mimeType":"image/jpeg",
			"name":"ambar1",
			"uri":"textures/ambar1.jpg"
		},
		{
			"mimeType":"image/jpeg",
			"name":"red1",
			"uri":"textures/red1.jpg"
		}
	],
	"accessors":[
		{
			"bufferView":0,
			"componentType":5126,
			"count":315,
			"max":[
				449.5800476074219,
				22.329967498779297,
				435.3377380371094
			],
			"min":[
				-154.39111328125,
				-22.3726806640625,
				-1129.7457275390625
			],
			"type":"VEC3"
		},
		{
			"bufferView":1,
			"componentType":5126,
			"count":315,
			"type":"VEC3"
		},
		{
			"bufferView":2,
			"componentType":5126,
			"count":315,
			"type":"VEC2"
		},
		{
			"bufferView":3,
			"componentType":5123,
			"count":816,
			"type":"SCALAR"
		},
		{
			"bufferView":4,
			"componentType":5126,
			"count":10990,
			"max":[
				0.21251800656318665,
				0.08563490211963654,
				-2.1571099758148193
			],
			"min":[
				-0.02633650042116642,
				-0.25929200649261475,
				-2.892210006713867
			],
			"type":"VEC3"
		},
		{
			"bufferView":5,
			"componentType":5126,
			"count":10990,
			"type":"VEC3"
		},
		{
			"bufferView":6,
			"componentType":5126,
			"count":10990,
			"type":"VEC2"
		},
		{
			"bufferView":7,
			"componentType":5126,
			"count":10990,
			"type":"VEC3"
		},
		{
			"bufferView":8,
			"componentType":5123,
			"count":10990,
			"normalized":true,
			"type":"VEC4"
		},
		{
			"bufferView":9,
			"componentType":5123,
			"count":13752,
			"type":"SCALAR"
		},
		{
			"bufferView":10,
			"componentType":5126,
			"count":618,
			"max":[
				0.18888500332832336,
				-0.06465090066194534,
				-2.189690113067627
			],
			"min":[
				-0.0027034298982471228,
				-0.09016220271587372,
				-2.381279945373535
			],
			"type":"VEC3"
		},
		{
			"bufferView":11,
			"componentType":5126,
			"count":618,
			"type":"VEC3"
		},
		{
			"bufferView":12,
			"componentType":5126,
			"count":618,
			"type":"VEC2"
		},
		{
			"bufferView":13,
			"componentType":5126,
			"count":618,
			"type":"VEC3"
		},
		{
			"bufferView":14,
			"componentType":5123,
			"count":618,
			"normalized":true,
			"type":"VEC4"
		},
		{
			"bufferView":15,
			"componentType":5123,
			"count":624,
			"type":"SCALAR"
		},
		{
			"bufferView":16,
			"componentType":5126,
			"count":622,
			"max":[
				0.18888500332832336,
				-0.06465090066194534,
				-2.4332098960876465
			],
			"min":[
				-0.0027034298982471228,
				-0.09016220271587372,
				-2.624799966812134
			],
			"type":"VEC3"
		},
		{
			"bufferView":17,
			"componentType":5126,
			"count":622,
			"type":"VEC3"
		},
		{
			"bufferView":18,
			"componentType":5126,
			"count":622,
			"type":"VEC2"
		},
		{
			"bufferView":19,
			"componentType":5126,
			"count":622,
			"type":"VEC3"
		},
		{
			"bufferView":20,
			"componentType":5123,
			"count":622,
			"normalized":true,
			"type":"VEC4"
		},
		{
			"bufferView":21,
			"componentType":5123,
			"count":624,
			"type":"SCALAR"
		},
		{
			"bufferView":22,
			"componentType":5126,
			"count":612,
			"max":[
				0.18888500332832336,
				-0.06465090066194534,
				-2.6770200729370117
			],
			"min":[
				-0.0027034298982471228,
				-0.09016220271587372,
				-2.86860990524292
			],
			"type":"VEC3"
		},
		{
			"bufferView":23,
			"componentType":5126,
			"count":612,
			"type":"VEC3"
		},
		{
			"bufferView":24,
			"componentType":5126,
			"count":612,
			"type":"VEC2"
		},
		{
			"bufferView":25,
			"componentType":5126,
			"count":612,
			"type":"VEC3"
		},
		{
			"bufferView":26,
			"componentType":5123,
			"count":612,
			"normalized":true,
			"type":"VEC4"
		},
		{
			"bufferView":27,
			"componentType":5123,
			"count":624,
			"type":"SCALAR"
		},
		{
			"bufferView":28,
			"componentType":5126,
			"count":10990,
			"max":[
				0.21251800656318665,
				0.08563490211963654,
				-2.1571099758148193
			],
			"min":[
				-0.02633650042116642,
				-0.25929200649261475,
				-2.892210006713867
			],
			"type":"VEC3"
		},
		{
			"bufferView":29,
			"componentType":5126,
			"count":10990,
			"type":"VEC3"
		},
		{
			"bufferView":30,
			"componentType":5126,
			"count":10990,
			"type":"VEC2"
		},
		{
			"bufferView":31,
			"componentType":5126,
			"count":10990,
			"type":"VEC3"
		},
		{
			"bufferView":32,
			"componentType":5123,
			"count":10990,
			"normalized":true,
			"type":"VEC4"
		},
		{
			"bufferView":33,
			"componentType":5126,
			"count":618,
			"max":[
				0.18888500332832336,
				-0.06465090066194534,
				-2.189690113067627
			],
			"min":[
				-0.0027034298982471228,
				-0.09016220271587372,
				-2.381279945373535
			],
			"type":"VEC3"
		},
		{
			"bufferView":34,
			"componentType":5126,
			"count":618,
			"type":"VEC3"
		},
		{
			"bufferView":35,
			"componentType":5126,
			"count":618,
			"type":"VEC2"
		},
		{
			"bufferView":36,
			"componentType":5126,
			"count":618,
			"type":"VEC3"
		},
		{
			"bufferView":37,
			"componentType":5123,
			"count":618,
			"normalized":true,
			"type":"VEC4"
		},
		{
			"bufferView":38,
			"componentType":5126,
			"count":622,
			"max":[
				0.18888500332832336,
				-0.06465090066194534,
				-2.4332098960876465
			],
			"min":[
				-0.0027034298982471228,
				-0.09016220271587372,
				-2.624799966812134
			],
			"type":"VEC3"
		},
		{
			"bufferView":39,
			"componentType":5126,
			"count":622,
			"type":"VEC3"
		},
		{
			"bufferView":40,
			"componentType":5126,
			"count":622,
			"type":"VEC2"
		},
		{
			"bufferView":41,
			"componentType":5126,
			"count":622,
			"type":"VEC3"
		},
		{
			"bufferView":42,
			"componentType":5123,
			"count":622,
			"normalized":true,
			"type":"VEC4"
		},
		{
			"bufferView":43,
			"componentType":5126,
			"count":612,
			"max":[
				0.18888500332832336,
				-0.06465090066194534,
				-2.6770200729370117
			],
			"min":[
				-0.0027034298982471228,
				-0.09016220271587372,
				-2.86860990524292
			],
			"type":"VEC3"
		},
		{
			"bufferView":44,
			"componentType":5126,
			"count":612,
			"type":"VEC3"
		},
		{
			"bufferView":45,
			"componentType":5126,
			"count":612,
			"type":"VEC2"
		},
		{
			"bufferView":46,
			"componentType":5126,
			"count":612,
			"type":"VEC3"
		},
		{
			"bufferView":47,
			"componentType":5123,
			"count":612,
			"normalized":true,
			"type":"VEC4"
		},
		{
			"bufferView":48,
			"componentType":5126,
			"count":4,
			"max":[
				0.9294301867485046,
				0.09787964820861816,
				0.8022427558898926
			],
			"min":[
				-1.0705698728561401,
				0.09787964820861816,
				-1.197757363319397
			],
			"type":"VEC3"
		},
		{
			"bufferView":49,
			"componentType":5126,
			"count":4,
			"type":"VEC3"
		},
		{
			"bufferView":50,
			"componentType":5126,
			"count":4,
			"type":"VEC2"
		},
		{
			"bufferView":51,
			"componentType":5123,
			"count":6,
			"type":"SCALAR"
		}
	],
	"bufferViews":[
		{
			"buffer":0,
			"byteLength":3780,
			"byteOffset":0,
			"target":34962
		},
		{
			"buffer":0,
			"byteLength":3780,
			"byteOffset":3780,
			"target":34962
		},
		{
			"buffer":0,
			"byteLength":2520,
			"byteOffset":7560,
			"target":34962
		},
		{
			"buffer":0,
			"byteLength":1632,
			"byteOffset":10080,
			"target":34963
		},
		{
			"buffer":0,
			"byteLength":131880,
			"byteOffset":11712,
			"target":34962
		},
		{
			"buffer":0,
			"byteLength":131880,
			"byteOffset":143592,
			"target":34962
		},
		{
			"buffer":0,
			"byteLength":87920,
			"byteOffset":275472,
			"target":34962
		},
		{
			"buffer":0,
			"byteLength":131880,
			"byteOffset":363392,
			"target":34962
		},
		{
			"buffer":0,
			"byteLength":87920,
			"byteOffset":495272,
			"target":34962
		},
		{
			"buffer":0,
			"byteLength":27504,
			"byteOffset":583192,
			"target":34963
		},
		{
			"buffer":0,
			"byteLength":7416,
			"byteOffset":610696,
			"target":34962
		},
		{
			"buffer":0,
			"byteLength":7416,
			"byteOffset":618112,
			"target":34962
		},
		{
			"buffer":0,
			"byteLength":4944,
			"byteOffset":625528,
			"target":34962
		},
		{
			"buffer":0,
			"byteLength":7416,
			"byteOffset":630472,
			"target":34962
		},
		{
			"buffer":0,
			"byteLength":4944,
			"byteOffset":637888,
			"target":34962
		},
		{
			"buffer":0,
			"byteLength":1248,
			"byteOffset":642832,
			"target":34963
		},
		{
			"buffer":0,
			"byteLength":7464,
			"byteOffset":644080,
			"target":34962
		},
		{
			"buffer":0,
			"byteLength":7464,
			"byteOffset":651544,
			"target":34962
		},
		{
			"buffer":0,
			"byteLength":4976,
			"byteOffset":659008,
			"target":34962
		},
		{
			"buffer":0,
			"byteLength":7464,
			"byteOffset":663984,
			"target":34962
		},
		{
			"buffer":0,
			"byteLength":4976,
			"byteOffset":671448,
			"target":34962
		},
		{
			"buffer":0,
			"byteLength":1248,
			"byteOffset":676424,
			"target":34963
		},
		{
			"buffer":0,
			"byteLength":7344,
			"byteOffset":677672,
			"target":34962
		},
		{
			"buffer":0,
			"byteLength":7344,
			"byteOffset":685016,
			"target":34962
		},
		{
			"buffer":0,
			"byteLength":4896,
			"byteOffset":692360,
			"target":34962
		},
		{
			"buffer":0,
			"byteLength":7344,
			"byteOffset":697256,
			"target":34962
		},
		{
			"buffer":0,
			"byteLength":4896,
			"byteOffset":704600,
			"target":34962
		},
		{
			"buffer":0,
			"byteLength":1248,
			"byteOffset":709496,
			"target":34963
		},
		{
			"buffer":0,
			"byteLength":131880,
			"byteOffset":710744,
			"target":34962
		},
		{
			"buffer":0,
			"byteLength":131880,
			"byteOffset":842624,
			"target":34962
		},
		{
			"buffer":0,
			"byteLength":87920,
			"byteOffset":974504,
			"target":34962
		},
		{
			"buffer":0,
			"byteLength":131880,
			"byteOffset":1062424,
			"target":34962
		},
		{
			"buffer":0,
			"byteLength":87920,
			"byteOffset":1194304,
			"target":34962
		},
		{
			"buffer":0,
			"byteLength":7416,
			"byteOffset":1282224,
			"target":34962
		},
		{
			"buffer":0,
			"byteLength":7416,
			"byteOffset":1289640,
			"target":34962
		},
		{
			"buffer":0,
			"byteLength":4944,
			"byteOffset":1297056,
			"target":34962
		},
		{
			"buffer":0,
			"byteLength":7416,
			"byteOffset":1302000,
			"target":34962
		},
		{
			"buffer":0,
			"byteLength":4944,
			"byteOffset":1309416,
			"target":34962
		},
		{
			"buffer":0,
			"byteLength":7464,
			"byteOffset":1314360,
			"target":34962
		},
		{
			"buffer":0,
			"byteLength":7464,
			"byteOffset":1321824,
			"target":34962
		},
		{
			"buffer":0,
			"byteLength":4976,
			"byteOffset":1329288,
			"target":34962
		},
		{
			"buffer":0,
			"byteLength":7464,
			"byteOffset":1334264,
			"target":34962
		},
		{
			"buffer":0,
			"byteLength":4976,
			"byteOffset":1341728,
			"target":34962
		},
		{
			"buffer":0,
			"byteLength":7344,
			"byteOffset":1346704,
			"target":34962
		},
		{
			"buffer":0,
			"byteLength":7344,
			"byteOffset":1354048,
			"target":34962
		},
		{
			"buffer":0,
			"byteLength":4896,
			"byteOffset":1361392,
			"target":34962
		},
		{
			"buffer":0,
			"byteLength":7344,
			"byteOffset":1366288,
			"target":34962
		},
		{
			"buffer":0,
			"byteLength":4896,
			"byteOffset":1373632,
			"target":34962
		},
		{
			"buffer":0,
			"byteLength":48,
			"byteOffset":1378528,
			"target":34962
		},
		{
			"buffer":0,
			"byteLength":48,
			"byteOffset":1378576,
			"target":34962
		},
		{
			"buffer":0,
			"byteLength":32,
			"byteOffset":1378624,
			"target":34962
		},
		{
			"buffer":0,
			"byteLength":12,
			"byteOffset":1378656,
			"target":34963
		}
	],
	"samplers":[
		{
			"magFilter":9729,
			"minFilter":9987
		}
	],
	"buffers":[
		{
			"byteLength":1378668,
			"uri":"Untitled.bin"
		}
	]
}
