{
	"asset":{
		"generator":"Khronos glTF Blender I/O v5.1.18",
		"version":"2.0"
	},
	"scene":0,
	"scenes":[
		{
			"name":"Scene",
			"nodes":[
				42
			]
		}
	],
	"nodes":[
		{
			"name":"barrier"
		},
		{
			"mesh":0,
			"name":"bench_M_bench_wood_0",
			"scale":[
				0.6000000238418579,
				0.6000000238418579,
				0.6000000238418579
			],
			"translation":[
				0,
				0,
				276.31787109375
			]
		},
		{
			"children":[
				1
			],
			"name":"bench"
		},
		{
			"name":"bench_bed"
		},
		{
			"name":"bench_double"
		},
		{
			"name":"bench_single"
		},
		{
			"name":"bus_stop"
		},
		{
			"name":"clock"
		},
		{
			"name":"crosswalk_lamp"
		},
		{
			"name":"directory"
		},
		{
			"name":"flat_bed"
		},
		{
			"name":"information"
		},
		{
			"name":"lamp0"
		},
		{
			"name":"lamp1"
		},
		{
			"name":"landscape_bed"
		},
		{
			"name":"light"
		},
		{
			"name":"manhole_cover0"
		},
		{
			"name":"manhole_cover1"
		},
		{
			"name":"manhole_cover2"
		},
		{
			"name":"manhole_cover3"
		},
		{
			"name":"parking_curb_concrete"
		},
		{
			"name":"parking_curb_yellow"
		},
		{
			"name":"planter"
		},
		{
			"name":"planter_pot"
		},
		{
			"name":"public_parking"
		},
		{
			"name":"rail_long"
		},
		{
			"name":"rail_short"
		},
		{
			"name":"rail_single_step"
		},
		{
			"name":"rail_single_step1"
		},
		{
			"name":"rail_single_step2"
		},
		{
			"name":"SAMPLE_GROUND1"
		},
		{
			"name":"SAMPLE_GROUND2"
		},
		{
			"name":"sign"
		},
		{
			"name":"subway"
		},
		{
			"name":"trash"
		},
		{
			"name":"trash_bin0"
		},
		{
			"name":"trash_bin1"
		},
		{
			"name":"utility"
		},
		{
			"name":"valet_parking"
		},
		{
			"name":"vent"
		},
		{
			"children":[
				0,
				2,
				3,
				4,
				5,
				6,
				7,
				8,
				9,
				10,
				11,
				12,
				13,
				14,
				15,
				16,
				17,
				18,
				19,
				20,
				21,
				22,
				23,
				24,
				25,
				26,
				27,
				28,
				29,
				30,
				31,
				32,
				33,
				34,
				35,
				36,
				37,
				38,
				39
			],
			"name":"RootNode"
		},
		{
			"children":[
				40
			],
			"name":"city_props_pack_vol_2.fbx",
			"rotation":[
				0.70710688829422,
				0,
				0,
				0.7071066498756409
			],
			"scale":[
				0.009999999776482582,
				0.009999999776482582,
				0.009999999776482582
			]
		},
		{
			"children":[
				41
			],
			"name":"bench.001",
			"rotation":[
				-0.70710688829422,
				0,
				0,
				0.7071066498756409
			]
		}
	],
	"materials":[
		{
			"doubleSided":true,
			"name":"M_bench_wood",
			"normalTexture":{
				"index":0
			},
			"pbrMetallicRoughness":{
				"baseColorTexture":{
					"index":1
				},
				"metallicRoughnessTexture":{
					"index":2
				}
			}
		}
	],
	"meshes":[
		{
			"name":"bench_M_bench_wood_0",
			"primitives":[
				{
					"attributes":{
						"POSITION":0,
						"NORMAL":1,
						"TEXCOORD_0":2
					},
					"indices":3,
					"material":0
				}
			]
		}
	],
	"textures":[
		{
			"sampler":0,
			"source":0
		},
		{
			"sampler":0,
			"source":1
		},
		{
			"sampler":0,
			"source":2
		}
	],
	"images":[
		{
			"mimeType":"image/png",
			"name":"Image_68",
			"uri":"Image_68.png"
		},
		{
			"mimeType":"image/jpeg",
			"name":"Image_66",
			"uri":"Image_66.jpg"
		},
		{
			"mimeType":"image/png",
			"name":"Image_67",
			"uri":"Image_67.png"
		}
	],
	"accessors":[
		{
			"bufferView":0,
			"componentType":5126,
			"count":488,
			"max":[
				11.65582275390625,
				122.03111267089844,
				-433.28375244140625
			],
			"min":[
				-240.33169555664062,
				-0.0703703761100769,
				-498.27386474609375
			],
			"type":"VEC3"
		},
		{
			"bufferView":1,
			"componentType":5126,
			"count":488,
			"type":"VEC3"
		},
		{
			"bufferView":2,
			"componentType":5126,
			"count":488,
			"type":"VEC2"
		},
		{
			"bufferView":3,
			"componentType":5123,
			"count":864,
			"type":"SCALAR"
		}
	],
	"bufferViews":[
		{
			"buffer":0,
			"byteLength":5856,
			"byteOffset":0,
			"target":34962
		},
		{
			"buffer":0,
			"byteLength":5856,
			"byteOffset":5856,
			"target":34962
		},
		{
			"buffer":0,
			"byteLength":3904,
			"byteOffset":11712,
			"target":34962
		},
		{
			"buffer":0,
			"byteLength":1728,
			"byteOffset":15616,
			"target":34963
		}
	],
	"samplers":[
		{
			"magFilter":9729,
			"minFilter":9987
		}
	],
	"buffers":[
		{
			"byteLength":17344,
			"uri":"w_amenity_bench.bin"
		}
	]
}
