{
	"asset":{
		"generator":"Khronos glTF Blender I/O v5.1.18",
		"version":"2.0"
	},
	"extensionsUsed":[
		"KHR_materials_unlit"
	],
	"scene":0,
	"scenes":[
		{
			"name":"Scene",
			"nodes":[
				4
			]
		}
	],
	"nodes":[
		{
			"mesh":0,
			"name":"mesh_main_0",
			"translation":[
				0,
				-0.09212394803762436,
				0
			]
		},
		{
			"children":[
				0
			],
			"name":"mesh"
		},
		{
			"children":[
				1
			],
			"name":"RootNode"
		},
		{
			"children":[
				2
			],
			"name":"df633dd197814f77a4336e041c935cbe.fbx",
			"rotation":[
				0.70710688829422,
				0,
				0,
				0.7071066498756409
			]
		},
		{
			"children":[
				3
			],
			"name":"Sketchfab_model",
			"rotation":[
				-0.70710688829422,
				0,
				0,
				0.7071066498756409
			]
		}
	],
	"materials":[
		{
			"doubleSided":true,
			"extensions":{
				"KHR_materials_unlit":{}
			},
			"name":"main",
			"pbrMetallicRoughness":{
				"baseColorTexture":{
					"index":0
				},
				"metallicFactor":0,
				"roughnessFactor":0.9
			}
		}
	],
	"meshes":[
		{
			"name":"mesh_main_0",
			"primitives":[
				{
					"attributes":{
						"POSITION":0,
						"NORMAL":1,
						"TEXCOORD_0":2,
						"TEXCOORD_1":3,
						"TEXCOORD_2":4,
						"TEXCOORD_3":5,
						"TEXCOORD_4":6,
						"TEXCOORD_5":7,
						"TEXCOORD_6":8,
						"TEXCOORD_7":9
					},
					"indices":10,
					"material":0
				}
			]
		}
	],
	"textures":[
		{
			"sampler":0,
			"source":0
		}
	],
	"images":[
		{
			"mimeType":"image/jpeg",
			"name":"Image_0",
			"uri":"Image_0.jpg"
		}
	],
	"accessors":[
		{
			"bufferView":0,
			"componentType":5126,
			"count":21746,
			"max":[
				0.2821853756904602,
				1.4513198137283325,
				0.2474791407585144
			],
			"min":[
				-0.3195745646953583,
				0.09364306926727295,
				-0.4759655296802521
			],
			"type":"VEC3"
		},
		{
			"bufferView":1,
			"componentType":5126,
			"count":21746,
			"type":"VEC3"
		},
		{
			"bufferView":2,
			"componentType":5126,
			"count":21746,
			"type":"VEC2"
		},
		{
			"bufferView":3,
			"componentType":5126,
			"count":21746,
			"type":"VEC2"
		},
		{
			"bufferView":4,
			"componentType":5126,
			"count":21746,
			"type":"VEC2"
		},
		{
			"bufferView":5,
			"componentType":5126,
			"count":21746,
			"type":"VEC2"
		},
		{
			"bufferView":6,
			"componentType":5126,
			"count":21746,
			"type":"VEC2"
		},
		{
			"bufferView":7,
			"componentType":5126,
			"count":21746,
			"type":"VEC2"
		},
		{
			"bufferView":8,
			"componentType":5126,
			"count":21746,
			"type":"VEC2"
		},
		{
			"bufferView":9,
			"componentType":5126,
			"count":21746,
			"type":"VEC2"
		},
		{
			"bufferView":10,
			"componentType":5123,
			"count":118716,
			"type":"SCALAR"
		}
	],
	"bufferViews":[
		{
			"buffer":0,
			"byteLength":260952,
			"byteOffset":0,
			"target":34962
		},
		{
			"buffer":0,
			"byteLength":260952,
			"byteOffset":260952,
			"target":34962
		},
		{
			"buffer":0,
			"byteLength":173968,
			"byteOffset":521904,
			"target":34962
		},
		{
			"buffer":0,
			"byteLength":173968,
			"byteOffset":695872,
			"target":34962
		},
		{
			"buffer":0,
			"byteLength":173968,
			"byteOffset":869840,
			"target":34962
		},
		{
			"buffer":0,
			"byteLength":173968,
			"byteOffset":1043808,
			"target":34962
		},
		{
			"buffer":0,
			"byteLength":173968,
			"byteOffset":1217776,
			"target":34962
		},
		{
			"buffer":0,
			"byteLength":173968,
			"byteOffset":1391744,
			"target":34962
		},
		{
			"buffer":0,
			"byteLength":173968,
			"byteOffset":1565712,
			"target":34962
		},
		{
			"buffer":0,
			"byteLength":173968,
			"byteOffset":1739680,
			"target":34962
		},
		{
			"buffer":0,
			"byteLength":237432,
			"byteOffset":1913648,
			"target":34963
		}
	],
	"samplers":[
		{
			"magFilter":9729,
			"minFilter":9987
		}
	],
	"buffers":[
		{
			"byteLength":2151080,
			"uri":"w_amenity_drinking_water.bin"
		}
	]
}
