{
	"asset":{
		"generator":"Khronos glTF Blender I/O v5.1.18",
		"version":"2.0"
	},
	"extensionsUsed":[
		"KHR_materials_specular"
	],
	"scene":0,
	"scenes":[
		{
			"name":"Scene",
			"nodes":[
				0
			]
		}
	],
	"nodes":[
		{
			"mesh":0,
			"name":"semafor",
			"rotation":[
				0.7061826586723328,
				0.03614135459065437,
				-0.03614135459065437,
				0.7061824798583984
			],
			"translation":[
				-0.02470073476433754,
				0.019539430737495422,
				0.193353533744812
			]
		}
	],
	"materials":[
		{
			"doubleSided":true,
			"extensions":{
				"KHR_materials_specular":{
					"specularFactor":0.6600000262260437
				}
			},
			"name":"metalic1",
			"pbrMetallicRoughness":{
				"baseColorFactor":[
					1,
					0.6866854429244995,
					0,
					1
				],
				"metallicFactor":0
			}
		},
		{
			"doubleSided":true,
			"extensions":{
				"KHR_materials_specular":{
					"specularFactor":0.6600000262260437
				}
			},
			"name":"FrontColor",
			"pbrMetallicRoughness":{
				"metallicFactor":0
			}
		},
		{
			"doubleSided":true,
			"extensions":{
				"KHR_materials_specular":{
					"specularFactor":0.6600000262260437
				}
			},
			"name":"stop_semafor_gent",
			"pbrMetallicRoughness":{
				"baseColorTexture":{
					"index":0
				},
				"metallicFactor":0
			}
		},
		{
			"doubleSided":true,
			"extensions":{
				"KHR_materials_specular":{
					"specularFactor":0.6600000262260437
				}
			},
			"name":"go_semafor_gent",
			"pbrMetallicRoughness":{
				"baseColorTexture":{
					"index":1
				},
				"metallicFactor":0
			}
		}
	],
	"meshes":[
		{
			"name":"semafor_vianants",
			"primitives":[
				{
					"attributes":{
						"POSITION":0,
						"NORMAL":1,
						"TEXCOORD_0":2
					},
					"indices":3,
					"material":0
				},
				{
					"attributes":{
						"POSITION":4,
						"NORMAL":5,
						"TEXCOORD_0":6
					},
					"indices":7,
					"material":1
				},
				{
					"attributes":{
						"POSITION":8,
						"NORMAL":9,
						"TEXCOORD_0":10
					},
					"indices":11,
					"material":2
				},
				{
					"attributes":{
						"POSITION":12,
						"NORMAL":13,
						"TEXCOORD_0":14
					},
					"indices":15,
					"material":3
				}
			]
		}
	],
	"textures":[
		{
			"sampler":0,
			"source":0
		},
		{
			"sampler":0,
			"source":1
		}
	],
	"images":[
		{
			"mimeType":"image/jpeg",
			"name":"stop_semaforo_bo1",
			"uri":"textures/stop_semaforo_bo1.jpg"
		},
		{
			"mimeType":"image/jpeg",
			"name":"go_semaforo_boys1",
			"uri":"textures/go_semaforo_boys1.jpg"
		}
	],
	"accessors":[
		{
			"bufferView":0,
			"componentType":5126,
			"count":3453,
			"max":[
				0.20377899706363678,
				-0.07225680351257324,
				-5.7999899581773207e-05
			],
			"min":[
				-0.2619140148162842,
				-0.41578400135040283,
				-2.50846004486084
			],
			"type":"VEC3"
		},
		{
			"bufferView":1,
			"componentType":5126,
			"count":3453,
			"type":"VEC3"
		},
		{
			"bufferView":2,
			"componentType":5126,
			"count":3453,
			"type":"VEC2"
		},
		{
			"bufferView":3,
			"componentType":5123,
			"count":5190,
			"type":"SCALAR"
		},
		{
			"bufferView":4,
			"componentType":5126,
			"count":180,
			"max":[
				-0.12923599779605865,
				-0.23392799496650696,
				-2.1172800064086914
			],
			"min":[
				-0.14175400137901306,
				-0.39379000663757324,
				-2.487380027770996
			],
			"type":"VEC3"
		},
		{
			"bufferView":5,
			"componentType":5126,
			"count":180,
			"type":"VEC3"
		},
		{
			"bufferView":6,
			"componentType":5126,
			"count":180,
			"type":"VEC2"
		},
		{
			"bufferView":7,
			"componentType":5123,
			"count":240,
			"type":"SCALAR"
		},
		{
			"bufferView":8,
			"componentType":5126,
			"count":24,
			"max":[
				-0.14175400137901306,
				-0.23392799496650696,
				-2.3254199028015137
			],
			"min":[
				-0.14175400137901306,
				-0.39379000663757324,
				-2.487380027770996
			],
			"type":"VEC3"
		},
		{
			"bufferView":9,
			"componentType":5126,
			"count":24,
			"type":"VEC3"
		},
		{
			"bufferView":10,
			"componentType":5126,
			"count":24,
			"type":"VEC2"
		},
		{
			"bufferView":11,
			"componentType":5123,
			"count":54,
			"type":"SCALAR"
		},
		{
			"bufferView":12,
			"componentType":5126,
			"count":23,
			"max":[
				-0.14175400137901306,
				-0.23392799496650696,
				-2.1172800064086914
			],
			"min":[
				-0.14175400137901306,
				-0.39379000663757324,
				-2.279249906539917
			],
			"type":"VEC3"
		},
		{
			"bufferView":13,
			"componentType":5126,
			"count":23,
			"type":"VEC3"
		},
		{
			"bufferView":14,
			"componentType":5126,
			"count":23,
			"type":"VEC2"
		},
		{
			"bufferView":15,
			"componentType":5123,
			"count":54,
			"type":"SCALAR"
		}
	],
	"bufferViews":[
		{
			"buffer":0,
			"byteLength":41436,
			"byteOffset":0,
			"target":34962
		},
		{
			"buffer":0,
			"byteLength":41436,
			"byteOffset":41436,
			"target":34962
		},
		{
			"buffer":0,
			"byteLength":27624,
			"byteOffset":82872,
			"target":34962
		},
		{
			"buffer":0,
			"byteLength":10380,
			"byteOffset":110496,
			"target":34963
		},
		{
			"buffer":0,
			"byteLength":2160,
			"byteOffset":120876,
			"target":34962
		},
		{
			"buffer":0,
			"byteLength":2160,
			"byteOffset":123036,
			"target":34962
		},
		{
			"buffer":0,
			"byteLength":1440,
			"byteOffset":125196,
			"target":34962
		},
		{
			"buffer":0,
			"byteLength":480,
			"byteOffset":126636,
			"target":34963
		},
		{
			"buffer":0,
			"byteLength":288,
			"byteOffset":127116,
			"target":34962
		},
		{
			"buffer":0,
			"byteLength":288,
			"byteOffset":127404,
			"target":34962
		},
		{
			"buffer":0,
			"byteLength":192,
			"byteOffset":127692,
			"target":34962
		},
		{
			"buffer":0,
			"byteLength":108,
			"byteOffset":127884,
			"target":34963
		},
		{
			"buffer":0,
			"byteLength":276,
			"byteOffset":127992,
			"target":34962
		},
		{
			"buffer":0,
			"byteLength":276,
			"byteOffset":128268,
			"target":34962
		},
		{
			"buffer":0,
			"byteLength":184,
			"byteOffset":128544,
			"target":34962
		},
		{
			"buffer":0,
			"byteLength":108,
			"byteOffset":128728,
			"target":34963
		}
	],
	"samplers":[
		{
			"magFilter":9729,
			"minFilter":9987
		}
	],
	"buffers":[
		{
			"byteLength":128836,
			"uri":"w_highway_traffic_signals_pedestrian.bin"
		}
	]
}
