{
	"asset":{
		"generator":"Khronos glTF Blender I/O v5.2.39",
		"version":"2.0"
	},
	"extensionsUsed":[
		"KHR_materials_specular",
		"KHR_materials_ior"
	],
	"scene":0,
	"scenes":[
		{
			"name":"Scene",
			"nodes":[
				0,
				1,
				2,
				3,
				4,
				5,
				6
			]
		}
	],
	"nodes":[
		{
			"mesh":0,
			"name":"1_Sign_H",
			"rotation":[
				0.70710688829422,
				0,
				0,
				0.7071066498756409
			],
			"scale":[
				0.009999999776482582,
				0.009999999776482582,
				0.014999999664723873
			],
			"translation":[
				-0.22994013130664825,
				2.818917751312256,
				0
			]
		},
		{
			"mesh":1,
			"name":"4_Sign_Zeitplan",
			"rotation":[
				0.70710688829422,
				0,
				0,
				0.7071066498756409
			],
			"scale":[
				0.004000000189989805,
				0.009999999776482582,
				0.03999999910593033
			],
			"translation":[
				2.99377711598936e-06,
				1.4950683116912842,
				0
			]
		},
		{
			"mesh":2,
			"name":"Handle_DOWN",
			"rotation":[
				0.70710688829422,
				0,
				0,
				0.7071066498756409
			],
			"scale":[
				0.009999999776482582,
				0.009999999776482582,
				0.009999999776482582
			],
			"translation":[
				0,
				0.6141685247421265,
				0
			]
		},
		{
			"mesh":3,
			"name":"Handle_UP",
			"rotation":[
				0.70710688829422,
				0,
				0,
				0.7071066498756409
			],
			"scale":[
				0.009999999776482582,
				0.009999999776482582,
				0.009999999776482582
			],
			"translation":[
				0,
				1.106056809425354,
				0
			]
		},
		{
			"mesh":4,
			"name":"Pole",
			"rotation":[
				0.70710688829422,
				0,
				0,
				0.7071066498756409
			],
			"scale":[
				0.009999999776482582,
				0.009999999776482582,
				0.009999999776482582
			],
			"translation":[
				0,
				2.0064046382904053,
				0
			]
		},
		{
			"mesh":5,
			"name":"UnderHandle_Down",
			"rotation":[
				0.70710688829422,
				0,
				0,
				0.7071066498756409
			],
			"scale":[
				0.009999999776482582,
				0.009999999776482582,
				0.009999999776482582
			],
			"translation":[
				0,
				0.6141685247421265,
				0
			]
		},
		{
			"mesh":6,
			"name":"UnderHandle_UP",
			"rotation":[
				0.70710688829422,
				0,
				0,
				0.7071066498756409
			],
			"scale":[
				0.009999999776482582,
				0.009999999776482582,
				0.009999999776482582
			],
			"translation":[
				0,
				1.106056809425354,
				0
			]
		}
	],
	"materials":[
		{
			"doubleSided":true,
			"name":"Maps",
			"normalTexture":{
				"index":0
			},
			"pbrMetallicRoughness":{
				"baseColorTexture":{
					"index":1
				},
				"metallicFactor":0,
				"metallicRoughnessTexture":{
					"index":2
				}
			}
		},
		{
			"doubleSided":true,
			"name":"ReflectBack",
			"pbrMetallicRoughness":{
				"baseColorFactor":[
					0.800000011920929,
					0.800000011920929,
					0.800000011920929,
					1
				],
				"roughnessFactor":0.5
			}
		},
		{
			"doubleSided":true,
			"name":"Pole",
			"pbrMetallicRoughness":{
				"baseColorFactor":[
					0.9551910758018494,
					0.3281969726085663,
					0.004342456813901663,
					1
				],
				"metallicFactor":0,
				"roughnessFactor":0.08181819319725037
			}
		},
		{
			"doubleSided":true,
			"extensions":{
				"KHR_materials_specular":{
					"specularColorFactor":[
						2.0,
						2.0,
						2.0
					]
				},
				"KHR_materials_ior":{
					"ior":1.4500000476837158
				}
			},
			"name":"BlackBack",
			"pbrMetallicRoughness":{
				"baseColorFactor":[
					0.03594350069761276,
					0.03537790849804878,
					0.03334428742527962,
					1
				],
				"metallicFactor":0,
				"roughnessFactor":0.4343145787715912
			}
		}
	],
	"meshes":[
		{
			"name":"Mesh.001",
			"primitives":[
				{
					"attributes":{
						"POSITION":0,
						"NORMAL":1,
						"TEXCOORD_0":2
					},
					"indices":3,
					"material":0
				}
			]
		},
		{
			"name":"Mesh.004",
			"primitives":[
				{
					"attributes":{
						"POSITION":4,
						"NORMAL":5,
						"TEXCOORD_0":6
					},
					"indices":7,
					"material":0
				}
			]
		},
		{
			"name":"Mesh.008",
			"primitives":[
				{
					"attributes":{
						"POSITION":8,
						"NORMAL":9,
						"TEXCOORD_0":10
					},
					"indices":11,
					"material":1
				}
			]
		},
		{
			"name":"Mesh.011",
			"primitives":[
				{
					"attributes":{
						"POSITION":12,
						"NORMAL":13,
						"TEXCOORD_0":14
					},
					"indices":11,
					"material":1
				}
			]
		},
		{
			"name":"Mesh",
			"primitives":[
				{
					"attributes":{
						"POSITION":15,
						"NORMAL":16,
						"TEXCOORD_0":17
					},
					"indices":18,
					"material":2
				}
			]
		},
		{
			"name":"Mesh.009",
			"primitives":[
				{
					"attributes":{
						"POSITION":19,
						"NORMAL":20,
						"TEXCOORD_0":21
					},
					"indices":11,
					"material":3
				}
			]
		},
		{
			"name":"Mesh.010",
			"primitives":[
				{
					"attributes":{
						"POSITION":22,
						"NORMAL":23,
						"TEXCOORD_0":24
					},
					"indices":11,
					"material":3
				}
			]
		}
	],
	"textures":[
		{
			"sampler":0,
			"source":0
		},
		{
			"sampler":0,
			"source":1
		},
		{
			"sampler":0,
			"source":2
		}
	],
	"images":[
		{
			"mimeType":"image/png",
			"name":"BusStop_Normal_Map",
			"uri":"BusStop_Normal_Map.png"
		},
		{
			"mimeType":"image/png",
			"name":"BusStop_Color_Map",
			"uri":"BusStop_Color_Map.png"
		},
		{
			"mimeType":"image/png",
			"name":"BusStop_Roughness_Map",
			"uri":"BusStop_Roughness_Map.png"
		}
	],
	"accessors":[
		{
			"bufferView":0,
			"componentType":5126,
			"count":216,
			"max":[
				23.607542037963867,
				4.4681501388549805,
				21.422258377075195
			],
			"min":[
				-23.619524002075195,
				-4.4681501388549805,
				-21.42226219177246
			],
			"type":"VEC3"
		},
		{
			"bufferView":1,
			"componentType":5126,
			"count":216,
			"type":"VEC3"
		},
		{
			"bufferView":2,
			"componentType":5126,
			"count":216,
			"type":"VEC2"
		},
		{
			"bufferView":3,
			"componentType":5123,
			"count":852,
			"type":"SCALAR"
		},
		{
			"bufferView":4,
			"componentType":5126,
			"count":516,
			"max":[
				23.61323356628418,
				4.468217849731445,
				15.130609512329102
			],
			"min":[
				-23.613832473754883,
				-4.468082427978516,
				-15.228924751281738
			],
			"type":"VEC3"
		},
		{
			"bufferView":5,
			"componentType":5126,
			"count":516,
			"type":"VEC3"
		},
		{
			"bufferView":6,
			"componentType":5126,
			"count":516,
			"type":"VEC2"
		},
		{
			"bufferView":7,
			"componentType":5123,
			"count":1644,
			"type":"SCALAR"
		},
		{
			"bufferView":8,
			"componentType":5126,
			"count":458,
			"max":[
				2.921663761138916,
				2.921663761138916,
				0.4830491542816162
			],
			"min":[
				-2.921663761138916,
				-2.921663761138916,
				-0.4830491542816162
			],
			"type":"VEC3"
		},
		{
			"bufferView":9,
			"componentType":5126,
			"count":458,
			"type":"VEC3"
		},
		{
			"bufferView":10,
			"componentType":5126,
			"count":458,
			"type":"VEC2"
		},
		{
			"bufferView":11,
			"componentType":5123,
			"count":1920,
			"type":"SCALAR"
		},
		{
			"bufferView":12,
			"componentType":5126,
			"count":458,
			"max":[
				2.921663761138916,
				2.921663761138916,
				0.4830491542816162
			],
			"min":[
				-2.921663761138916,
				-2.921663761138916,
				-0.4830491542816162
			],
			"type":"VEC3"
		},
		{
			"bufferView":13,
			"componentType":5126,
			"count":458,
			"type":"VEC3"
		},
		{
			"bufferView":14,
			"componentType":5126,
			"count":458,
			"type":"VEC2"
		},
		{
			"bufferView":15,
			"componentType":5126,
			"count":158,
			"max":[
				2.7922956943511963,
				2.7922956943511963,
				200.40640258789062
			],
			"min":[
				-2.7922956943511963,
				-2.7922956943511963,
				-103.27360534667969
			],
			"type":"VEC3"
		},
		{
			"bufferView":16,
			"componentType":5126,
			"count":158,
			"type":"VEC3"
		},
		{
			"bufferView":17,
			"componentType":5126,
			"count":158,
			"type":"VEC2"
		},
		{
			"bufferView":18,
			"componentType":5123,
			"count":288,
			"type":"SCALAR"
		},
		{
			"bufferView":19,
			"componentType":5126,
			"count":458,
			"max":[
				2.8589999675750732,
				2.8589999675750732,
				0.7359516024589539
			],
			"min":[
				-2.8589999675750732,
				-2.8589999675750732,
				-0.7359516024589539
			],
			"type":"VEC3"
		},
		{
			"bufferView":20,
			"componentType":5126,
			"count":458,
			"type":"VEC3"
		},
		{
			"bufferView":21,
			"componentType":5126,
			"count":458,
			"type":"VEC2"
		},
		{
			"bufferView":22,
			"componentType":5126,
			"count":458,
			"max":[
				2.8589999675750732,
				2.8589999675750732,
				0.7359516024589539
			],
			"min":[
				-2.8589999675750732,
				-2.8589999675750732,
				-0.7359516024589539
			],
			"type":"VEC3"
		},
		{
			"bufferView":23,
			"componentType":5126,
			"count":458,
			"type":"VEC3"
		},
		{
			"bufferView":24,
			"componentType":5126,
			"count":458,
			"type":"VEC2"
		}
	],
	"bufferViews":[
		{
			"buffer":0,
			"byteLength":2592,
			"byteOffset":0,
			"target":34962
		},
		{
			"buffer":0,
			"byteLength":2592,
			"byteOffset":2592,
			"target":34962
		},
		{
			"buffer":0,
			"byteLength":1728,
			"byteOffset":5184,
			"target":34962
		},
		{
			"buffer":0,
			"byteLength":1704,
			"byteOffset":6912,
			"target":34963
		},
		{
			"buffer":0,
			"byteLength":6192,
			"byteOffset":8616,
			"target":34962
		},
		{
			"buffer":0,
			"byteLength":6192,
			"byteOffset":14808,
			"target":34962
		},
		{
			"buffer":0,
			"byteLength":4128,
			"byteOffset":21000,
			"target":34962
		},
		{
			"buffer":0,
			"byteLength":3288,
			"byteOffset":25128,
			"target":34963
		},
		{
			"buffer":0,
			"byteLength":5496,
			"byteOffset":28416,
			"target":34962
		},
		{
			"buffer":0,
			"byteLength":5496,
			"byteOffset":33912,
			"target":34962
		},
		{
			"buffer":0,
			"byteLength":3664,
			"byteOffset":39408,
			"target":34962
		},
		{
			"buffer":0,
			"byteLength":3840,
			"byteOffset":43072,
			"target":34963
		},
		{
			"buffer":0,
			"byteLength":5496,
			"byteOffset":46912,
			"target":34962
		},
		{
			"buffer":0,
			"byteLength":5496,
			"byteOffset":52408,
			"target":34962
		},
		{
			"buffer":0,
			"byteLength":3664,
			"byteOffset":57904,
			"target":34962
		},
		{
			"buffer":0,
			"byteLength":1896,
			"byteOffset":61568,
			"target":34962
		},
		{
			"buffer":0,
			"byteLength":1896,
			"byteOffset":63464,
			"target":34962
		},
		{
			"buffer":0,
			"byteLength":1264,
			"byteOffset":65360,
			"target":34962
		},
		{
			"buffer":0,
			"byteLength":576,
			"byteOffset":66624,
			"target":34963
		},
		{
			"buffer":0,
			"byteLength":5496,
			"byteOffset":67200,
			"target":34962
		},
		{
			"buffer":0,
			"byteLength":5496,
			"byteOffset":72696,
			"target":34962
		},
		{
			"buffer":0,
			"byteLength":3664,
			"byteOffset":78192,
			"target":34962
		},
		{
			"buffer":0,
			"byteLength":5496,
			"byteOffset":81856,
			"target":34962
		},
		{
			"buffer":0,
			"byteLength":5496,
			"byteOffset":87352,
			"target":34962
		},
		{
			"buffer":0,
			"byteLength":3664,
			"byteOffset":92848,
			"target":34962
		}
	],
	"samplers":[
		{
			"magFilter":9729,
			"minFilter":9987
		}
	],
	"buffers":[
		{
			"byteLength":96512,
			"uri":"w_highway_bus_stop.bin"
		}
	]
}
