{
	"asset":{
		"generator":"Khronos glTF Blender I/O v5.1.18",
		"version":"2.0"
	},
	"extensionsUsed":[
		"KHR_materials_specular"
	],
	"scene":0,
	"scenes":[
		{
			"name":"Scene",
			"nodes":[
				0
			]
		}
	],
	"nodes":[
		{
			"mesh":0,
			"name":"semaforo (SU 2017)",
			"rotation":[
				0.5390202403068542,
				-0.4576649069786072,
				0.45766502618789673,
				0.5390201807022095
			]
		}
	],
	"materials":[
		{
			"doubleSided":true,
			"extensions":{
				"KHR_materials_specular":{
					"specularFactor":0.6600000262260437
				}
			},
			"name":"metalic1",
			"pbrMetallicRoughness":{
				"baseColorFactor":[
					1,
					0.6866854429244995,
					0,
					1
				],
				"metallicFactor":0
			}
		},
		{
			"doubleSided":true,
			"extensions":{
				"KHR_materials_specular":{
					"specularFactor":0.6600000262260437
				}
			},
			"name":"green1",
			"pbrMetallicRoughness":{
				"baseColorTexture":{
					"index":0
				},
				"metallicFactor":0
			}
		},
		{
			"doubleSided":true,
			"extensions":{
				"KHR_materials_specular":{
					"specularFactor":0.6600000262260437
				}
			},
			"name":"ambar1",
			"pbrMetallicRoughness":{
				"baseColorTexture":{
					"index":1
				},
				"metallicFactor":0
			}
		}
	],
	"meshes":[
		{
			"name":"semaforo (SU 2017)",
			"primitives":[
				{
					"attributes":{
						"POSITION":0,
						"NORMAL":1,
						"TEXCOORD_0":2
					},
					"indices":3,
					"material":0
				},
				{
					"attributes":{
						"POSITION":4,
						"NORMAL":5,
						"TEXCOORD_0":6
					},
					"indices":7,
					"material":1
				},
				{
					"attributes":{
						"POSITION":8,
						"NORMAL":9,
						"TEXCOORD_0":10
					},
					"indices":11,
					"material":2
				}
			]
		}
	],
	"textures":[
		{
			"sampler":0,
			"source":0
		},
		{
			"sampler":0,
			"source":1
		}
	],
	"images":[
		{
			"mimeType":"image/jpeg",
			"name":"green1",
			"uri":"textures/green1.jpg"
		},
		{
			"mimeType":"image/jpeg",
			"name":"ambar1",
			"uri":"textures/ambar1.jpg"
		}
	],
	"accessors":[
		{
			"bufferView":0,
			"componentType":5126,
			"count":9116,
			"max":[
				0.21251800656318665,
				0.08563490211963654,
				-5.7999899581773207e-05
			],
			"min":[
				-0.02633650042116642,
				-0.29363301396369934,
				-2.6556363105773926
			],
			"type":"VEC3"
		},
		{
			"bufferView":1,
			"componentType":5126,
			"count":9116,
			"type":"VEC3"
		},
		{
			"bufferView":2,
			"componentType":5126,
			"count":9116,
			"type":"VEC2"
		},
		{
			"bufferView":3,
			"componentType":5123,
			"count":11193,
			"type":"SCALAR"
		},
		{
			"bufferView":4,
			"componentType":5126,
			"count":618,
			"max":[
				0.18888500332832336,
				-0.06465090066194534,
				-2.189690113067627
			],
			"min":[
				-0.0027034298982471228,
				-0.09016220271587372,
				-2.381279945373535
			],
			"type":"VEC3"
		},
		{
			"bufferView":5,
			"componentType":5126,
			"count":618,
			"type":"VEC3"
		},
		{
			"bufferView":6,
			"componentType":5126,
			"count":618,
			"type":"VEC2"
		},
		{
			"bufferView":7,
			"componentType":5123,
			"count":624,
			"type":"SCALAR"
		},
		{
			"bufferView":8,
			"componentType":5126,
			"count":622,
			"max":[
				0.18888500332832336,
				-0.06465090066194534,
				-2.4332098960876465
			],
			"min":[
				-0.0027034298982471228,
				-0.09016220271587372,
				-2.624799966812134
			],
			"type":"VEC3"
		},
		{
			"bufferView":9,
			"componentType":5126,
			"count":622,
			"type":"VEC3"
		},
		{
			"bufferView":10,
			"componentType":5126,
			"count":622,
			"type":"VEC2"
		},
		{
			"bufferView":11,
			"componentType":5123,
			"count":624,
			"type":"SCALAR"
		}
	],
	"bufferViews":[
		{
			"buffer":0,
			"byteLength":109392,
			"byteOffset":0,
			"target":34962
		},
		{
			"buffer":0,
			"byteLength":109392,
			"byteOffset":109392,
			"target":34962
		},
		{
			"buffer":0,
			"byteLength":72928,
			"byteOffset":218784,
			"target":34962
		},
		{
			"buffer":0,
			"byteLength":22386,
			"byteOffset":291712,
			"target":34963
		},
		{
			"buffer":0,
			"byteLength":7416,
			"byteOffset":314100,
			"target":34962
		},
		{
			"buffer":0,
			"byteLength":7416,
			"byteOffset":321516,
			"target":34962
		},
		{
			"buffer":0,
			"byteLength":4944,
			"byteOffset":328932,
			"target":34962
		},
		{
			"buffer":0,
			"byteLength":1248,
			"byteOffset":333876,
			"target":34963
		},
		{
			"buffer":0,
			"byteLength":7464,
			"byteOffset":335124,
			"target":34962
		},
		{
			"buffer":0,
			"byteLength":7464,
			"byteOffset":342588,
			"target":34962
		},
		{
			"buffer":0,
			"byteLength":4976,
			"byteOffset":350052,
			"target":34962
		},
		{
			"buffer":0,
			"byteLength":1248,
			"byteOffset":355028,
			"target":34963
		}
	],
	"samplers":[
		{
			"magFilter":9729,
			"minFilter":9987
		}
	],
	"buffers":[
		{
			"byteLength":356276,
			"uri":"w_highway_traffic_signals_cycle.bin"
		}
	]
}
