{
	"asset":{
		"generator":"Khronos glTF Blender I/O v5.1.18",
		"version":"2.0"
	},
	"extensionsUsed":[
		"KHR_materials_unlit"
	],
	"scene":0,
	"scenes":[
		{
			"name":"Scene",
			"nodes":[
				8
			]
		}
	],
	"nodes":[
		{
			"mesh":0,
			"name":"Object_2",
			"translation":[
				0,
				0,
				7.62939453125e-06
			]
		},
		{
			"mesh":1,
			"name":"Object_3",
			"translation":[
				0,
				0,
				7.62939453125e-06
			]
		},
		{
			"mesh":2,
			"name":"Object_4",
			"translation":[
				0,
				0,
				7.62939453125e-06
			]
		},
		{
			"mesh":3,
			"name":"Object_5",
			"translation":[
				0,
				0,
				7.62939453125e-06
			]
		},
		{
			"mesh":4,
			"name":"Object_6",
			"translation":[
				0,
				0,
				7.62939453125e-06
			]
		},
		{
			"mesh":5,
			"name":"Object_7",
			"translation":[
				0,
				0,
				7.62939453125e-06
			]
		},
		{
			"mesh":6,
			"name":"Object_8",
			"translation":[
				0,
				0,
				7.62939453125e-06
			]
		},
		{
			"children":[
				0,
				1,
				2,
				3,
				4,
				5,
				6
			],
			"name":"tobogan",
			"translation":[
				0,
				0,
				7.62939453125e-06
			]
		},
		{
			"children":[
				7
			],
			"name":"slide",
			"rotation":[
				-0.70710688829422,
				0,
				0,
				0.7071066498756409
			],
			"scale":[
				0.0020000000949949026,
				0.0020000000949949026,
				0.0020000000949949026
			],
			"translation":[
				0,
				0.14508545398712158,
				0
			]
		}
	],
	"materials":[
		{
			"doubleSided":true,
			"extensions":{
				"KHR_materials_unlit":{}
			},
			"name":"Plastic",
			"pbrMetallicRoughness":{
				"baseColorTexture":{
					"index":0
				},
				"metallicFactor":0,
				"roughnessFactor":0.9
			}
		},
		{
			"doubleSided":true,
			"extensions":{
				"KHR_materials_unlit":{}
			},
			"name":"green",
			"pbrMetallicRoughness":{
				"baseColorTexture":{
					"index":1
				},
				"metallicFactor":0,
				"roughnessFactor":0.9
			}
		},
		{
			"doubleSided":true,
			"extensions":{
				"KHR_materials_unlit":{}
			},
			"name":"material",
			"pbrMetallicRoughness":{
				"baseColorTexture":{
					"index":2
				},
				"metallicFactor":0,
				"roughnessFactor":0.9
			}
		},
		{
			"doubleSided":true,
			"extensions":{
				"KHR_materials_unlit":{}
			},
			"name":"standart_metal",
			"pbrMetallicRoughness":{
				"baseColorTexture":{
					"index":3
				},
				"metallicFactor":0,
				"roughnessFactor":0.9
			}
		},
		{
			"doubleSided":true,
			"extensions":{
				"KHR_materials_unlit":{}
			},
			"name":"yellow",
			"pbrMetallicRoughness":{
				"baseColorTexture":{
					"index":4
				},
				"metallicFactor":0,
				"roughnessFactor":0.9
			}
		}
	],
	"meshes":[
		{
			"name":"Object_0",
			"primitives":[
				{
					"attributes":{
						"POSITION":0,
						"NORMAL":1,
						"TEXCOORD_0":2
					},
					"indices":3,
					"material":0
				}
			]
		},
		{
			"name":"Object_1",
			"primitives":[
				{
					"attributes":{
						"POSITION":4,
						"NORMAL":5,
						"TEXCOORD_0":6
					},
					"indices":7,
					"material":1
				}
			]
		},
		{
			"name":"Object_2",
			"primitives":[
				{
					"attributes":{
						"POSITION":8,
						"NORMAL":9,
						"TEXCOORD_0":10
					},
					"indices":11,
					"material":2
				}
			]
		},
		{
			"name":"Object_3",
			"primitives":[
				{
					"attributes":{
						"POSITION":12,
						"NORMAL":13,
						"TEXCOORD_0":14
					},
					"indices":15,
					"material":2
				}
			]
		},
		{
			"name":"Object_4",
			"primitives":[
				{
					"attributes":{
						"POSITION":16,
						"NORMAL":17,
						"TEXCOORD_0":18
					},
					"indices":19,
					"material":2
				}
			]
		},
		{
			"name":"Object_5",
			"primitives":[
				{
					"attributes":{
						"POSITION":20,
						"NORMAL":21,
						"TEXCOORD_0":22
					},
					"indices":23,
					"material":3
				}
			]
		},
		{
			"name":"Object_6",
			"primitives":[
				{
					"attributes":{
						"POSITION":24,
						"NORMAL":25,
						"TEXCOORD_0":26
					},
					"indices":27,
					"material":4
				}
			]
		}
	],
	"textures":[
		{
			"sampler":0,
			"source":0
		},
		{
			"sampler":0,
			"source":1
		},
		{
			"sampler":0,
			"source":2
		},
		{
			"sampler":0,
			"source":3
		},
		{
			"sampler":0,
			"source":4
		}
	],
	"images":[
		{
			"mimeType":"image/jpeg",
			"name":"Image_0",
			"uri":"Image_0.jpg"
		},
		{
			"mimeType":"image/jpeg",
			"name":"Image_1",
			"uri":"Image_1.jpg"
		},
		{
			"mimeType":"image/jpeg",
			"name":"Image_2",
			"uri":"Image_2.jpg"
		},
		{
			"mimeType":"image/jpeg",
			"name":"Image_3",
			"uri":"Image_3.jpg"
		},
		{
			"mimeType":"image/jpeg",
			"name":"Image_4",
			"uri":"Image_4.jpg"
		}
	],
	"accessors":[
		{
			"bufferView":0,
			"componentType":5126,
			"count":5237,
			"max":[
				593.7824096679688,
				420.8100891113281,
				971.2202758789062
			],
			"min":[
				129.2154998779297,
				-43.756900787353516,
				156.25970458984375
			],
			"type":"VEC3"
		},
		{
			"bufferView":1,
			"componentType":5126,
			"count":5237,
			"type":"VEC3"
		},
		{
			"bufferView":2,
			"componentType":5126,
			"count":5237,
			"type":"VEC2"
		},
		{
			"bufferView":3,
			"componentType":5123,
			"count":13383,
			"type":"SCALAR"
		},
		{
			"bufferView":4,
			"componentType":5126,
			"count":8568,
			"max":[
				646.8469848632812,
				438.5270080566406,
				1607.0469970703125
			],
			"min":[
				76.15070343017578,
				-56.5161018371582,
				150.3533935546875
			],
			"type":"VEC3"
		},
		{
			"bufferView":5,
			"componentType":5126,
			"count":8568,
			"type":"VEC3"
		},
		{
			"bufferView":6,
			"componentType":5126,
			"count":8568,
			"type":"VEC2"
		},
		{
			"bufferView":7,
			"componentType":5123,
			"count":18177,
			"type":"SCALAR"
		},
		{
			"bufferView":8,
			"componentType":5126,
			"count":9515,
			"max":[
				619.3729248046875,
				430.652587890625,
				1272.4013671875
			],
			"min":[
				119.3729019165039,
				-419.7239074707031,
				-5.856100082397461
			],
			"type":"VEC3"
		},
		{
			"bufferView":9,
			"componentType":5126,
			"count":9515,
			"type":"VEC3"
		},
		{
			"bufferView":10,
			"componentType":5126,
			"count":9515,
			"type":"VEC2"
		},
		{
			"bufferView":11,
			"componentType":5123,
			"count":28476,
			"type":"SCALAR"
		},
		{
			"bufferView":12,
			"componentType":5126,
			"count":9568,
			"max":[
				599.6879272460938,
				446.40069580078125,
				957.440673828125
			],
			"min":[
				-696.6090698242188,
				-419.7410888671875,
				-66.1812973022461
			],
			"type":"VEC3"
		},
		{
			"bufferView":13,
			"componentType":5126,
			"count":9568,
			"type":"VEC3"
		},
		{
			"bufferView":14,
			"componentType":5126,
			"count":9568,
			"type":"VEC2"
		},
		{
			"bufferView":15,
			"componentType":5123,
			"count":24714,
			"type":"SCALAR"
		},
		{
			"bufferView":16,
			"componentType":5126,
			"count":8620,
			"max":[
				696.6090698242188,
				441.87298583984375,
				1641.72021484375
			],
			"min":[
				26.388700485229492,
				-419.7239990234375,
				193.2675018310547
			],
			"type":"VEC3"
		},
		{
			"bufferView":17,
			"componentType":5126,
			"count":8620,
			"type":"VEC3"
		},
		{
			"bufferView":18,
			"componentType":5126,
			"count":8620,
			"type":"VEC2"
		},
		{
			"bufferView":19,
			"componentType":5123,
			"count":26460,
			"type":"SCALAR"
		},
		{
			"bufferView":20,
			"componentType":5126,
			"count":7401,
			"max":[
				611.892578125,
				438.92059326171875,
				1335.3934326171875
			],
			"min":[
				-623.2451782226562,
				-412.8747863769531,
				154.29119873046875
			],
			"type":"VEC3"
		},
		{
			"bufferView":21,
			"componentType":5126,
			"count":7401,
			"type":"VEC3"
		},
		{
			"bufferView":22,
			"componentType":5126,
			"count":7401,
			"type":"VEC2"
		},
		{
			"bufferView":23,
			"componentType":5123,
			"count":16656,
			"type":"SCALAR"
		},
		{
			"bufferView":24,
			"componentType":5126,
			"count":10032,
			"max":[
				611.4989013671875,
				450.7312927246094,
				1685.787109375
			],
			"min":[
				-259.2663879394531,
				-450.7312927246094,
				150.3542022705078
			],
			"type":"VEC3"
		},
		{
			"bufferView":25,
			"componentType":5126,
			"count":10032,
			"type":"VEC3"
		},
		{
			"bufferView":26,
			"componentType":5126,
			"count":10032,
			"type":"VEC2"
		},
		{
			"bufferView":27,
			"componentType":5123,
			"count":32088,
			"type":"SCALAR"
		}
	],
	"bufferViews":[
		{
			"buffer":0,
			"byteLength":62844,
			"byteOffset":0,
			"target":34962
		},
		{
			"buffer":0,
			"byteLength":62844,
			"byteOffset":62844,
			"target":34962
		},
		{
			"buffer":0,
			"byteLength":41896,
			"byteOffset":125688,
			"target":34962
		},
		{
			"buffer":0,
			"byteLength":26766,
			"byteOffset":167584,
			"target":34963
		},
		{
			"buffer":0,
			"byteLength":102816,
			"byteOffset":194352,
			"target":34962
		},
		{
			"buffer":0,
			"byteLength":102816,
			"byteOffset":297168,
			"target":34962
		},
		{
			"buffer":0,
			"byteLength":68544,
			"byteOffset":399984,
			"target":34962
		},
		{
			"buffer":0,
			"byteLength":36354,
			"byteOffset":468528,
			"target":34963
		},
		{
			"buffer":0,
			"byteLength":114180,
			"byteOffset":504884,
			"target":34962
		},
		{
			"buffer":0,
			"byteLength":114180,
			"byteOffset":619064,
			"target":34962
		},
		{
			"buffer":0,
			"byteLength":76120,
			"byteOffset":733244,
			"target":34962
		},
		{
			"buffer":0,
			"byteLength":56952,
			"byteOffset":809364,
			"target":34963
		},
		{
			"buffer":0,
			"byteLength":114816,
			"byteOffset":866316,
			"target":34962
		},
		{
			"buffer":0,
			"byteLength":114816,
			"byteOffset":981132,
			"target":34962
		},
		{
			"buffer":0,
			"byteLength":76544,
			"byteOffset":1095948,
			"target":34962
		},
		{
			"buffer":0,
			"byteLength":49428,
			"byteOffset":1172492,
			"target":34963
		},
		{
			"buffer":0,
			"byteLength":103440,
			"byteOffset":1221920,
			"target":34962
		},
		{
			"buffer":0,
			"byteLength":103440,
			"byteOffset":1325360,
			"target":34962
		},
		{
			"buffer":0,
			"byteLength":68960,
			"byteOffset":1428800,
			"target":34962
		},
		{
			"buffer":0,
			"byteLength":52920,
			"byteOffset":1497760,
			"target":34963
		},
		{
			"buffer":0,
			"byteLength":88812,
			"byteOffset":1550680,
			"target":34962
		},
		{
			"buffer":0,
			"byteLength":88812,
			"byteOffset":1639492,
			"target":34962
		},
		{
			"buffer":0,
			"byteLength":59208,
			"byteOffset":1728304,
			"target":34962
		},
		{
			"buffer":0,
			"byteLength":33312,
			"byteOffset":1787512,
			"target":34963
		},
		{
			"buffer":0,
			"byteLength":120384,
			"byteOffset":1820824,
			"target":34962
		},
		{
			"buffer":0,
			"byteLength":120384,
			"byteOffset":1941208,
			"target":34962
		},
		{
			"buffer":0,
			"byteLength":80256,
			"byteOffset":2061592,
			"target":34962
		},
		{
			"buffer":0,
			"byteLength":64176,
			"byteOffset":2141848,
			"target":34963
		}
	],
	"samplers":[
		{
			"magFilter":9729,
			"minFilter":9987
		}
	],
	"buffers":[
		{
			"byteLength":2206024,
			"uri":"w_playground_slide.bin"
		}
	]
}
