{
	"asset":{
		"generator":"Khronos glTF Blender I/O v5.1.18",
		"version":"2.0"
	},
	"extensionsUsed":[
		"KHR_materials_specular",
		"KHR_materials_ior"
	],
	"scene":0,
	"scenes":[
		{
			"name":"Scene",
			"nodes":[
				9
			]
		}
	],
	"nodes":[
		{
			"mesh":0,
			"name":"AM94_057_obj_0001",
			"translation":[
				145.00177001953125,
				126.1158447265625,
				0
			]
		},
		{
			"mesh":1,
			"name":"AM94_057_obj_0002",
			"translation":[
				-14.542106628417969,
				131.8814697265625,
				2.7418136596679688e-06
			]
		},
		{
			"mesh":2,
			"name":"AM94_057_obj_0003",
			"translation":[
				-0.7634468078613281,
				-146.93536376953125,
				-0.009394466876983643
			]
		},
		{
			"mesh":3,
			"name":"AM94_057_obj_0004",
			"translation":[
				-230.17982482910156,
				-66.1488037109375,
				-0.06664085388183594
			]
		},
		{
			"mesh":4,
			"name":"AM94_057_obj_0005",
			"translation":[
				0,
				133.6158447265625,
				7.936358451843262e-05
			]
		},
		{
			"mesh":5,
			"name":"AM94_057_obj_0006",
			"translation":[
				0.0017547606257721782,
				-13.88409423828125,
				2.562999725341797e-06
			]
		},
		{
			"mesh":6,
			"name":"AM94_057_obj_0007",
			"translation":[
				-309.99847412109375,
				26.1158447265625,
				3.129243850708008e-06
			]
		},
		{
			"mesh":7,
			"name":"AM94_057_obj_0008",
			"translation":[
				-127.91278076171875,
				41.5303955078125,
				0
			]
		},
		{
			"mesh":8,
			"name":"AM94_057_obj_0009",
			"translation":[
				140.00177001953125,
				115.3349609375,
				1.4543533325195312e-05
			]
		},
		{
			"children":[
				0,
				1,
				2,
				3,
				4,
				5,
				6,
				7,
				8
			],
			"name":"www.cadnav.com",
			"scale":[
				0.0010000000474974513,
				0.0010000000474974513,
				0.0010000000474974513
			],
			"translation":[
				0,
				0.2925085723400116,
				0
			]
		}
	],
	"materials":[
		{
			"doubleSided":true,
			"extensions":{
				"KHR_materials_specular":{
					"specularColorFactor":[
						0.0,
						0.0,
						0.0
					]
				},
				"KHR_materials_ior":{
					"ior":1.600000023841858
				}
			},
			"name":"AM94_057_obj_0007",
			"pbrMetallicRoughness":{
				"baseColorFactor":[
					0.8666667342185974,
					0.7333333492279053,
					0,
					1
				],
				"metallicFactor":0,
				"roughnessFactor":0
			}
		},
		{
			"doubleSided":true,
			"extensions":{
				"KHR_materials_specular":{
					"specularColorFactor":[
						0.0,
						0.0,
						0.0
					]
				},
				"KHR_materials_ior":{
					"ior":1.600000023841858
				}
			},
			"name":"AM94_057_obj_0001",
			"pbrMetallicRoughness":{
				"baseColorFactor":[
					1,
					0.8705883026123047,
					0.15294118225574493,
					1
				],
				"metallicFactor":0,
				"roughnessFactor":0
			}
		},
		{
			"doubleSided":true,
			"extensions":{
				"KHR_materials_specular":{
					"specularColorFactor":[
						2,
						2,
						2
					],
					"specularColorTexture":{
						"index":0
					}
				},
				"KHR_materials_ior":{
					"ior":1.600000023841858
				}
			},
			"name":"AM94_057_obj_0002",
			"pbrMetallicRoughness":{
				"baseColorFactor":[
					0.007843137718737125,
					0.007843137718737125,
					0.007843137718737125,
					1
				],
				"metallicFactor":0,
				"metallicRoughnessTexture":{
					"index":1
				}
			}
		},
		{
			"doubleSided":true,
			"extensions":{
				"KHR_materials_specular":{
					"specularColorFactor":[
						0.0,
						0.0,
						0.0
					]
				},
				"KHR_materials_ior":{
					"ior":1.600000023841858
				}
			},
			"name":"AM94_057_obj_0003",
			"pbrMetallicRoughness":{
				"baseColorFactor":[
					0,
					0.33725491166114807,
					0.02352941408753395,
					1
				],
				"metallicFactor":0,
				"roughnessFactor":0
			}
		},
		{
			"doubleSided":true,
			"extensions":{
				"KHR_materials_specular":{
					"specularColorFactor":[
						0.0,
						0.0,
						0.0
					]
				},
				"KHR_materials_ior":{
					"ior":1.600000023841858
				}
			},
			"name":"AM94_057_obj_0004",
			"pbrMetallicRoughness":{
				"baseColorFactor":[
					0,
					0.3529411852359772,
					0.6823529601097107,
					1
				],
				"metallicFactor":0,
				"roughnessFactor":0
			}
		},
		{
			"doubleSided":true,
			"extensions":{
				"KHR_materials_specular":{
					"specularColorFactor":[
						0.0,
						0.0,
						0.0
					]
				},
				"KHR_materials_ior":{
					"ior":1.600000023841858
				}
			},
			"name":"AM94_057_obj_0005",
			"pbrMetallicRoughness":{
				"baseColorFactor":[
					0.5215686559677124,
					0,
					0,
					1
				],
				"metallicFactor":0,
				"roughnessFactor":0
			}
		},
		{
			"doubleSided":true,
			"extensions":{
				"KHR_materials_specular":{
					"specularColorFactor":[
						2,
						2,
						2
					],
					"specularColorTexture":{
						"index":2
					}
				},
				"KHR_materials_ior":{
					"ior":1.600000023841858
				}
			},
			"name":"AM94_057_obj_0006",
			"pbrMetallicRoughness":{
				"baseColorFactor":[
					0.5,
					0.5,
					0.5,
					1
				],
				"metallicFactor":0,
				"metallicRoughnessTexture":{
					"index":3
				}
			}
		}
	],
	"meshes":[
		{
			"name":"AM94_057_obj_0001",
			"primitives":[
				{
					"attributes":{
						"POSITION":0,
						"NORMAL":1
					},
					"indices":2,
					"material":0
				}
			]
		},
		{
			"name":"AM94_057_obj_0002",
			"primitives":[
				{
					"attributes":{
						"POSITION":3,
						"NORMAL":4,
						"TEXCOORD_0":5
					},
					"indices":6,
					"material":1
				}
			]
		},
		{
			"name":"AM94_057_obj_0003",
			"primitives":[
				{
					"attributes":{
						"POSITION":7,
						"NORMAL":8,
						"TEXCOORD_0":9
					},
					"indices":10,
					"material":2
				}
			]
		},
		{
			"name":"AM94_057_obj_0004",
			"primitives":[
				{
					"attributes":{
						"POSITION":11,
						"NORMAL":12,
						"TEXCOORD_0":13
					},
					"indices":14,
					"material":0
				}
			]
		},
		{
			"name":"AM94_057_obj_0005",
			"primitives":[
				{
					"attributes":{
						"POSITION":15,
						"NORMAL":16,
						"TEXCOORD_0":17
					},
					"indices":18,
					"material":3
				}
			]
		},
		{
			"name":"AM94_057_obj_0006",
			"primitives":[
				{
					"attributes":{
						"POSITION":19,
						"NORMAL":20,
						"TEXCOORD_0":21
					},
					"indices":22,
					"material":4
				}
			]
		},
		{
			"name":"AM94_057_obj_0007",
			"primitives":[
				{
					"attributes":{
						"POSITION":23,
						"NORMAL":24,
						"TEXCOORD_0":25
					},
					"indices":26,
					"material":5
				}
			]
		},
		{
			"name":"AM94_057_obj_0008",
			"primitives":[
				{
					"attributes":{
						"POSITION":27,
						"NORMAL":28,
						"TEXCOORD_0":29
					},
					"indices":30,
					"material":1
				}
			]
		},
		{
			"name":"AM94_057_obj_0009",
			"primitives":[
				{
					"attributes":{
						"POSITION":31,
						"NORMAL":32,
						"TEXCOORD_0":33
					},
					"indices":34,
					"material":6
				}
			]
		}
	],
	"textures":[
		{
			"sampler":0,
			"source":0
		},
		{
			"sampler":0,
			"source":1
		},
		{
			"sampler":0,
			"source":0
		},
		{
			"sampler":0,
			"source":1
		}
	],
	"images":[
		{
			"mimeType":"image/jpeg",
			"name":"20110407105231968540",
			"uri":"20110407105231968540.jpg"
		},
		{
			"mimeType":"image/png",
			"name":"20110407105231968540",
			"uri":"20110407105231968540.png"
		}
	],
	"accessors":[
		{
			"bufferView":0,
			"componentType":5126,
			"count":768,
			"max":[
				160,
				5,
				109.99999237060547
			],
			"min":[
				-159.99998474121094,
				-5,
				-109.99999237060547
			],
			"type":"VEC3"
		},
		{
			"bufferView":1,
			"componentType":5126,
			"count":768,
			"type":"VEC3"
		},
		{
			"bufferView":2,
			"componentType":5123,
			"count":4596,
			"type":"SCALAR"
		},
		{
			"bufferView":3,
			"componentType":5126,
			"count":3980,
			"max":[
				304.54388427734375,
				154.85337829589844,
				74.99999237060547
			],
			"min":[
				-304.54388427734375,
				-154.85336303710938,
				-75
			],
			"type":"VEC3"
		},
		{
			"bufferView":4,
			"componentType":5126,
			"count":3980,
			"type":"VEC3"
		},
		{
			"bufferView":5,
			"componentType":5126,
			"count":3980,
			"type":"VEC2"
		},
		{
			"bufferView":6,
			"componentType":5123,
			"count":20544,
			"type":"SCALAR"
		},
		{
			"bufferView":7,
			"componentType":5126,
			"count":10166,
			"max":[
				82.77837371826172,
				149.1804656982422,
				82.77918243408203
			],
			"min":[
				-82.77836608886719,
				-149.1804656982422,
				-82.77919006347656
			],
			"type":"VEC3"
		},
		{
			"bufferView":8,
			"componentType":5126,
			"count":10166,
			"type":"VEC3"
		},
		{
			"bufferView":9,
			"componentType":5126,
			"count":10166,
			"type":"VEC2"
		},
		{
			"bufferView":10,
			"componentType":5123,
			"count":46500,
			"type":"SCALAR"
		},
		{
			"bufferView":11,
			"componentType":5126,
			"count":1637,
			"max":[
				19.970489501953125,
				19.901851654052734,
				74.84657287597656
			],
			"min":[
				-19.970489501953125,
				-19.901859283447266,
				-74.84657287597656
			],
			"type":"VEC3"
		},
		{
			"bufferView":12,
			"componentType":5126,
			"count":1637,
			"type":"VEC3"
		},
		{
			"bufferView":13,
			"componentType":5126,
			"count":1637,
			"type":"VEC2"
		},
		{
			"bufferView":14,
			"componentType":5123,
			"count":8424,
			"type":"SCALAR"
		},
		{
			"bufferView":15,
			"componentType":5126,
			"count":4232,
			"max":[
				350,
				162.5,
				6.000004291534424
			],
			"min":[
				-350,
				-162.5,
				-6.000004291534424
			],
			"type":"VEC3"
		},
		{
			"bufferView":16,
			"componentType":5126,
			"count":4232,
			"type":"VEC3"
		},
		{
			"bufferView":17,
			"componentType":5126,
			"count":4232,
			"type":"VEC2"
		},
		{
			"bufferView":18,
			"componentType":5123,
			"count":22728,
			"type":"SCALAR"
		},
		{
			"bufferView":19,
			"componentType":5126,
			"count":1344,
			"max":[
				280,
				80,
				14.000003814697266
			],
			"min":[
				-280,
				-80,
				-14.00000286102295
			],
			"type":"VEC3"
		},
		{
			"bufferView":20,
			"componentType":5126,
			"count":1344,
			"type":"VEC3"
		},
		{
			"bufferView":21,
			"componentType":5126,
			"count":1344,
			"type":"VEC2"
		},
		{
			"bufferView":22,
			"componentType":5123,
			"count":6096,
			"type":"SCALAR"
		},
		{
			"bufferView":23,
			"componentType":5126,
			"count":352,
			"max":[
				15.82928466796875,
				15.829307556152344,
				11
			],
			"min":[
				-15.829315185546875,
				-15.82929801940918,
				-11
			],
			"type":"VEC3"
		},
		{
			"bufferView":24,
			"componentType":5126,
			"count":352,
			"type":"VEC3"
		},
		{
			"bufferView":25,
			"componentType":5126,
			"count":352,
			"type":"VEC2"
		},
		{
			"bufferView":26,
			"componentType":5123,
			"count":1512,
			"type":"SCALAR"
		},
		{
			"bufferView":27,
			"componentType":5126,
			"count":704,
			"max":[
				197.914794921875,
				70.41450500488281,
				13.999999046325684
			],
			"min":[
				-197.91481018066406,
				-70.41450500488281,
				-13.999999046325684
			],
			"type":"VEC3"
		},
		{
			"bufferView":28,
			"componentType":5126,
			"count":704,
			"type":"VEC3"
		},
		{
			"bufferView":29,
			"componentType":5126,
			"count":704,
			"type":"VEC2"
		},
		{
			"bufferView":30,
			"componentType":5123,
			"count":2880,
			"type":"SCALAR"
		},
		{
			"bufferView":31,
			"componentType":5126,
			"count":2400,
			"max":[
				94.37406158447266,
				18.593219757080078,
				34.374053955078125
			],
			"min":[
				-94.37406921386719,
				-18.593189239501953,
				-34.37405014038086
			],
			"type":"VEC3"
		},
		{
			"bufferView":32,
			"componentType":5126,
			"count":2400,
			"type":"VEC3"
		},
		{
			"bufferView":33,
			"componentType":5126,
			"count":2400,
			"type":"VEC2"
		},
		{
			"bufferView":34,
			"componentType":5123,
			"count":11520,
			"type":"SCALAR"
		}
	],
	"bufferViews":[
		{
			"buffer":0,
			"byteLength":9216,
			"byteOffset":0,
			"target":34962
		},
		{
			"buffer":0,
			"byteLength":9216,
			"byteOffset":9216,
			"target":34962
		},
		{
			"buffer":0,
			"byteLength":9192,
			"byteOffset":18432,
			"target":34963
		},
		{
			"buffer":0,
			"byteLength":47760,
			"byteOffset":27624,
			"target":34962
		},
		{
			"buffer":0,
			"byteLength":47760,
			"byteOffset":75384,
			"target":34962
		},
		{
			"buffer":0,
			"byteLength":31840,
			"byteOffset":123144,
			"target":34962
		},
		{
			"buffer":0,
			"byteLength":41088,
			"byteOffset":154984,
			"target":34963
		},
		{
			"buffer":0,
			"byteLength":121992,
			"byteOffset":196072,
			"target":34962
		},
		{
			"buffer":0,
			"byteLength":121992,
			"byteOffset":318064,
			"target":34962
		},
		{
			"buffer":0,
			"byteLength":81328,
			"byteOffset":440056,
			"target":34962
		},
		{
			"buffer":0,
			"byteLength":93000,
			"byteOffset":521384,
			"target":34963
		},
		{
			"buffer":0,
			"byteLength":19644,
			"byteOffset":614384,
			"target":34962
		},
		{
			"buffer":0,
			"byteLength":19644,
			"byteOffset":634028,
			"target":34962
		},
		{
			"buffer":0,
			"byteLength":13096,
			"byteOffset":653672,
			"target":34962
		},
		{
			"buffer":0,
			"byteLength":16848,
			"byteOffset":666768,
			"target":34963
		},
		{
			"buffer":0,
			"byteLength":50784,
			"byteOffset":683616,
			"target":34962
		},
		{
			"buffer":0,
			"byteLength":50784,
			"byteOffset":734400,
			"target":34962
		},
		{
			"buffer":0,
			"byteLength":33856,
			"byteOffset":785184,
			"target":34962
		},
		{
			"buffer":0,
			"byteLength":45456,
			"byteOffset":819040,
			"target":34963
		},
		{
			"buffer":0,
			"byteLength":16128,
			"byteOffset":864496,
			"target":34962
		},
		{
			"buffer":0,
			"byteLength":16128,
			"byteOffset":880624,
			"target":34962
		},
		{
			"buffer":0,
			"byteLength":10752,
			"byteOffset":896752,
			"target":34962
		},
		{
			"buffer":0,
			"byteLength":12192,
			"byteOffset":907504,
			"target":34963
		},
		{
			"buffer":0,
			"byteLength":4224,
			"byteOffset":919696,
			"target":34962
		},
		{
			"buffer":0,
			"byteLength":4224,
			"byteOffset":923920,
			"target":34962
		},
		{
			"buffer":0,
			"byteLength":2816,
			"byteOffset":928144,
			"target":34962
		},
		{
			"buffer":0,
			"byteLength":3024,
			"byteOffset":930960,
			"target":34963
		},
		{
			"buffer":0,
			"byteLength":8448,
			"byteOffset":933984,
			"target":34962
		},
		{
			"buffer":0,
			"byteLength":8448,
			"byteOffset":942432,
			"target":34962
		},
		{
			"buffer":0,
			"byteLength":5632,
			"byteOffset":950880,
			"target":34962
		},
		{
			"buffer":0,
			"byteLength":5760,
			"byteOffset":956512,
			"target":34963
		},
		{
			"buffer":0,
			"byteLength":28800,
			"byteOffset":962272,
			"target":34962
		},
		{
			"buffer":0,
			"byteLength":28800,
			"byteOffset":991072,
			"target":34962
		},
		{
			"buffer":0,
			"byteLength":19200,
			"byteOffset":1019872,
			"target":34962
		},
		{
			"buffer":0,
			"byteLength":23040,
			"byteOffset":1039072,
			"target":34963
		}
	],
	"samplers":[
		{
			"magFilter":9729,
			"minFilter":9987
		}
	],
	"buffers":[
		{
			"byteLength":1062112,
			"uri":"w_playground_spring.bin"
		}
	]
}
