{
	"asset":{
		"generator":"Khronos glTF Blender I/O v5.2.39",
		"version":"2.0"
	},
	"scene":0,
	"scenes":[
		{
			"name":"Scene",
			"nodes":[
				0,
				1,
				2,
				3,
				4
			]
		}
	],
	"nodes":[
		{
			"mesh":0,
			"name":"Insulation disk",
			"rotation":[
				0,
				0,
				-0.6427876353263855,
				0.766044557094574
			],
			"scale":[
				1.5,
				1.5,
				1.5
			],
			"translation":[
				-0.848035991191864,
				63.871131896972656,
				14.118734359741211
			]
		},
		{
			"mesh":0,
			"name":"Insulation disk.001",
			"rotation":[
				0.6427876353263855,
				-0.766044557094574,
				0,
				3.348486998788758e-08
			],
			"scale":[
				1.5,
				1.5,
				1.5
			],
			"translation":[
				0.8464376926422119,
				63.871131896972656,
				-14.06967830657959
			]
		},
		{
			"mesh":0,
			"name":"Insulation disk.002",
			"translation":[
				-0.848035991191864,
				63.85072326660156,
				14.118734359741211
			]
		},
		{
			"mesh":0,
			"name":"Insulation disk.003",
			"translation":[
				0.8538880348205566,
				63.85072326660156,
				14.118734359741211
			]
		},
		{
			"mesh":1,
			"name":"Tower",
			"scale":[
				0.5,
				0.5,
				0.5
			]
		}
	],
	"materials":[
		{
			"doubleSided":true,
			"name":"Stainless_steel"
		},
		{
			"doubleSided":true,
			"name":"Galvanized_steel-Dark"
		}
	],
	"meshes":[
		{
			"name":"Insulation disk",
			"primitives":[
				{
					"attributes":{
						"POSITION":0,
						"NORMAL":1
					},
					"indices":2,
					"material":0
				}
			]
		},
		{
			"name":"Tower",
			"primitives":[
				{
					"attributes":{
						"POSITION":3,
						"NORMAL":4
					},
					"indices":5,
					"material":1
				}
			]
		}
	],
	"accessors":[
		{
			"bufferView":0,
			"componentType":5126,
			"count":35294,
			"max":[
				0.06489063054323196,
				0,
				0.06478084623813629
			],
			"min":[
				-0.06489063054323196,
				-0.9200000166893005,
				-0.06478084623813629
			],
			"type":"VEC3"
		},
		{
			"bufferView":1,
			"componentType":5126,
			"count":35294,
			"type":"VEC3"
		},
		{
			"bufferView":2,
			"componentType":5123,
			"count":54420,
			"type":"SCALAR"
		},
		{
			"bufferView":3,
			"componentType":5126,
			"count":36022,
			"max":[
				8.108133316040039,
				72.56147003173828,
				14.609999656677246
			],
			"min":[
				-8.108133316040039,
				0.43271610140800476,
				-14.609999656677246
			],
			"type":"VEC3"
		},
		{
			"bufferView":4,
			"componentType":5126,
			"count":36022,
			"type":"VEC3"
		},
		{
			"bufferView":5,
			"componentType":5123,
			"count":57498,
			"type":"SCALAR"
		}
	],
	"bufferViews":[
		{
			"buffer":0,
			"byteLength":423528,
			"byteOffset":0,
			"target":34962
		},
		{
			"buffer":0,
			"byteLength":423528,
			"byteOffset":423528,
			"target":34962
		},
		{
			"buffer":0,
			"byteLength":108840,
			"byteOffset":847056,
			"target":34963
		},
		{
			"buffer":0,
			"byteLength":432264,
			"byteOffset":955896,
			"target":34962
		},
		{
			"buffer":0,
			"byteLength":432264,
			"byteOffset":1388160,
			"target":34962
		},
		{
			"buffer":0,
			"byteLength":114996,
			"byteOffset":1820424,
			"target":34963
		}
	],
	"buffers":[
		{
			"byteLength":1935420,
			"uri":"w_power_tower.bin"
		}
	]
}
