{
	"asset":{
		"generator":"Khronos glTF Blender I/O v5.0.21",
		"version":"2.0"
	},
	"extensionsUsed":[
		"KHR_materials_transmission",
		"KHR_materials_specular",
		"KHR_materials_ior"
	],
	"scene":0,
	"scenes":[
		{
			"name":"Scene",
			"nodes":[
				0
			]
		}
	],
	"nodes":[
		{
			"mesh":0,
			"name":"Tree",
			"rotation":[
				0.7071068286895752,
				0,
				0,
				0.7071068286895752
			]
		}
	],
	"materials":[
		{
			"doubleSided":true,
			"extensions":{
				"KHR_materials_transmission":{
					"transmissionFactor":1
				},
				"KHR_materials_specular":{
					"specularFactor":0
				},
				"KHR_materials_ior":{
					"ior":1
				}
			},
			"name":"Trank_bark",
			"pbrMetallicRoughness":{
				"baseColorTexture":{
					"index":0
				},
				"metallicFactor":0,
				"roughnessFactor":0.873508870601654
			}
		},
		{
			"doubleSided":true,
			"extensions":{
				"KHR_materials_transmission":{
					"transmissionFactor":1
				},
				"KHR_materials_specular":{
					"specularTexture":{
						"index":1
					}
				},
				"KHR_materials_ior":{
					"ior":1
				}
			},
			"name":"polySurface1SG1",
			"pbrMetallicRoughness":{
				"baseColorTexture":{
					"index":2
				},
				"metallicFactor":0,
				"roughnessFactor":0.9232536554336548
			}
		}
	],
	"meshes":[
		{
			"name":"Tree",
			"primitives":[
				{
					"attributes":{
						"POSITION":0,
						"NORMAL":1,
						"TEXCOORD_0":2
					},
					"indices":3,
					"material":0
				},
				{
					"attributes":{
						"POSITION":4,
						"NORMAL":5,
						"TEXCOORD_0":6
					},
					"indices":7,
					"material":1
				}
			]
		}
	],
	"textures":[
		{
			"sampler":0,
			"source":0
		},
		{
			"sampler":0,
			"source":1
		},
		{
			"sampler":0,
			"source":2
		}
	],
	"images":[
		{
			"mimeType":"image/jpeg",
			"name":"bark_0021",
			"uri":"bark_0021.jpg"
		},
		{
			"mimeType":"image/png",
			"name":"DB2X2_L01_Spec",
			"uri":"DB2X2_L01_Spec.png"
		},
		{
			"mimeType":"image/png",
			"name":"DB2X2_L01",
			"uri":"DB2X2_L01.png"
		}
	],
	"accessors":[
		{
			"bufferView":0,
			"componentType":5126,
			"count":5594,
			"max":[
				1.3621289730072021,
				1.3919509649276733,
				0
			],
			"min":[
				-1.5695610046386719,
				-1.4089959859848022,
				-3.5887699127197266
			],
			"type":"VEC3"
		},
		{
			"bufferView":1,
			"componentType":5126,
			"count":5594,
			"type":"VEC3"
		},
		{
			"bufferView":2,
			"componentType":5126,
			"count":5594,
			"type":"VEC2"
		},
		{
			"bufferView":3,
			"componentType":5123,
			"count":20262,
			"type":"SCALAR"
		},
		{
			"bufferView":4,
			"componentType":5126,
			"count":6973,
			"max":[
				1.7888920307159424,
				1.7033220529556274,
				-1.4947999715805054
			],
			"min":[
				-1.8449180126190186,
				-1.8419129848480225,
				-3.821959972381592
			],
			"type":"VEC3"
		},
		{
			"bufferView":5,
			"componentType":5126,
			"count":6973,
			"type":"VEC3"
		},
		{
			"bufferView":6,
			"componentType":5126,
			"count":6973,
			"type":"VEC2"
		},
		{
			"bufferView":7,
			"componentType":5123,
			"count":20910,
			"type":"SCALAR"
		}
	],
	"bufferViews":[
		{
			"buffer":0,
			"byteLength":67128,
			"byteOffset":0,
			"target":34962
		},
		{
			"buffer":0,
			"byteLength":67128,
			"byteOffset":67128,
			"target":34962
		},
		{
			"buffer":0,
			"byteLength":44752,
			"byteOffset":134256,
			"target":34962
		},
		{
			"buffer":0,
			"byteLength":40524,
			"byteOffset":179008,
			"target":34963
		},
		{
			"buffer":0,
			"byteLength":83676,
			"byteOffset":219532,
			"target":34962
		},
		{
			"buffer":0,
			"byteLength":83676,
			"byteOffset":303208,
			"target":34962
		},
		{
			"buffer":0,
			"byteLength":55784,
			"byteOffset":386884,
			"target":34962
		},
		{
			"buffer":0,
			"byteLength":41820,
			"byteOffset":442668,
			"target":34963
		}
	],
	"samplers":[
		{
			"magFilter":9729,
			"minFilter":9987
		}
	],
	"buffers":[
		{
			"byteLength":484488,
			"uri":"tree.bin"
		}
	]
}
